<svg width="160" height="33" viewBox="0 0 160 33" fill="none" xmlns="http://www.w3.org/2000/svg">
<path fill-rule="evenodd" clip-rule="evenodd" d="M0 16.5273C0 18.0156 0.213554 19.4542 0.603636 20.8189C0.626777 20.9114 0.648595 21.0027 0.675703 21.0939C0.681653 21.1118 0.688926 21.127 0.696198 21.1448C2.67107 27.5309 8.63074 32.1835 15.6569 32.1835C18.9064 32.1835 21.9286 31.1878 24.4337 29.486C24.4588 29.4721 24.484 29.4589 24.5071 29.443C24.6559 29.3418 24.8 29.2354 24.9395 29.1243C27.8208 26.9954 29.9478 23.9051 30.8436 20.3296C30.8939 20.165 30.9375 19.9977 30.9745 19.8285C30.9825 19.7888 30.9851 19.7491 30.9878 19.7094C31.2 18.682 31.3131 17.6162 31.3131 16.5273C31.3131 14.4142 30.8992 12.3633 30.0826 10.4334C29.926 10.0632 29.4988 9.88994 29.1286 10.0466C28.7583 10.2027 28.5845 10.6304 28.7412 11.0007C29.4817 12.7501 29.8565 14.6099 29.8565 16.5273C29.8565 17.7022 29.7104 18.844 29.44 19.9362C29.2251 20.6258 28.8463 21.2638 28.3246 21.8423C28.3372 21.5951 28.3464 21.3451 28.3464 21.0906C28.3524 18.2972 27.5795 15.3471 26.1468 12.5736C27.1974 11.6711 27.8664 10.557 28.0972 9.3101C28.1706 8.91473 27.9088 8.53523 27.5134 8.4625C27.1187 8.38779 26.7379 8.65027 26.6651 9.0463C26.5131 9.87076 26.0853 10.6258 25.4149 11.2698C25.2066 10.9246 24.9904 10.5842 24.761 10.2476C23.483 8.3739 21.9643 6.75275 20.3022 5.45952C22.4959 5.60366 24.5236 6.13523 26.1574 7.04762C26.4132 7.19374 26.7537 7.18911 26.9924 6.98944C27.3018 6.73291 27.3428 6.27209 27.085 5.96266C24.7392 2.68068 20.6817 0.871094 15.6569 0.871094C7.02413 0.871094 0 7.89457 0 16.5273ZM16.0224 3.00628C15.3639 2.75371 14.712 2.55867 14.0707 2.41851C14.5857 2.36099 15.1067 2.32859 15.6363 2.32793C15.8843 2.33124 16.1884 2.62942 16.5077 3.20595C16.3464 3.13652 16.1844 3.06843 16.0224 3.00628ZM17.6008 2.43418C18.1919 2.49963 18.8213 2.60145 19.4692 2.75286C19.0633 2.97038 18.6428 3.24344 18.2157 3.57005C18.0252 3.1403 17.8203 2.76079 17.6008 2.43418ZM20.0535 3.99341C20.5534 3.6701 21.0129 3.44796 21.3976 3.35605C22.1282 3.64895 22.8522 4.0225 23.5391 4.49523C22.4376 4.22085 21.2661 4.05291 20.0535 3.99341ZM8.23886 5.91209C8.40085 5.15705 8.8544 4.48135 9.55787 3.92333C11.257 3.41556 13.2346 3.53788 15.3132 4.29887C14.4385 4.45093 13.5645 4.65259 12.701 4.91308C11.0944 5.39507 9.57903 6.05358 8.1906 6.8549C8.15886 6.53622 8.17407 6.22019 8.23886 5.91209ZM6.87258 5.38301C6.85209 5.45706 6.83093 5.53111 6.81506 5.6078C6.66763 6.29474 6.68482 6.99821 6.8587 7.69706C5.2911 8.77739 3.92845 10.0561 2.84415 11.4921C2.51292 11.9291 2.21738 12.3754 1.94961 12.8243C2.75556 9.84251 4.51159 7.24813 6.87258 5.38301ZM10.0047 10.0231C9.40234 9.45978 8.94482 8.87135 8.63672 8.28094C10.0013 7.45978 11.5114 6.79069 13.12 6.30738C14.0767 6.01978 15.0453 5.80623 16.0106 5.65879C14.6162 7.2211 13.2238 9.2059 11.9485 11.4472C11.2199 11.0261 10.5653 10.5487 10.0047 10.0231ZM16.2275 13.0576C15.1736 12.8328 14.1719 12.5095 13.2496 12.1042C14.6083 9.72733 16.0946 7.66055 17.5604 6.12402C18.0185 7.92568 18.4027 10.3488 18.5646 13.3531C17.7931 13.322 17.0076 13.2249 16.2275 13.0576ZM19.1148 6.38613C20.771 7.61853 22.2884 9.20861 23.5578 11.0684C23.7985 11.4215 24.0253 11.7799 24.2415 12.1415C23.0772 12.8139 21.6067 13.2159 20.0193 13.3289C19.8844 10.8159 19.5869 8.39803 19.1148 6.38613ZM4.5413 19.9192C3.30428 18.7754 2.45337 17.5655 2.02031 16.3635C2.36345 15.0161 3.02792 13.6647 4.00643 12.3695C4.93403 11.141 6.08775 10.0349 7.41139 9.08418C7.79354 9.77443 8.32841 10.4481 9.00874 11.0868C9.65602 11.6931 10.4111 12.2425 11.2474 12.7232C11.0173 13.1602 10.7912 13.6045 10.5717 14.0561C9.27982 16.7034 8.22461 19.5437 7.60511 22.1215C6.45668 21.4729 5.42263 20.7338 4.5413 19.9192ZM13.9856 24.4884C12.182 24.1017 10.4775 23.5291 8.93437 22.8038C9.44082 20.5241 10.3843 17.7612 11.8805 14.6947C12.0974 14.2504 12.3195 13.8141 12.5463 13.385C13.5922 13.8544 14.7294 14.2273 15.9228 14.4818C16.8299 14.6762 17.7357 14.782 18.6243 14.8124C18.6402 15.3585 18.6481 15.9218 18.6481 16.5023C18.6481 19.9311 18.3737 22.778 17.9783 25.0015C16.6752 24.9453 15.3344 24.776 13.9856 24.4884ZM20.1039 16.5026C20.1039 15.934 20.096 15.3627 20.0795 14.7935C21.8904 14.6731 23.5684 14.2024 24.9423 13.4123C26.213 15.9287 26.896 18.5826 26.8901 21.0877C26.8887 21.8136 26.8266 22.5039 26.7115 23.1551C26.057 23.5564 25.3046 23.9035 24.457 24.1892C22.9535 24.6949 21.259 24.9713 19.4633 25.0176C19.8957 22.4285 20.1039 19.4235 20.1039 16.5026ZM2.00202 20.4131C1.87772 19.9397 1.7997 19.4577 1.76797 18.9678C2.25392 19.6593 2.84698 20.3364 3.55243 20.9883C4.61756 21.9727 5.88235 22.8534 7.29194 23.6084C7.00433 25.219 6.92301 26.6775 7.10549 27.8544C4.67574 26.0164 2.85822 23.416 2.00202 20.4131ZM9.51056 29.3274C9.46758 29.2924 9.4213 29.2593 9.36973 29.2342C8.56047 28.8402 8.23386 27.0372 8.65502 24.2795C10.2087 24.9777 11.902 25.5311 13.6805 25.9112C15.0286 26.1995 16.372 26.3773 17.6851 26.4461C17.0411 29.2454 16.2154 30.7145 15.6692 30.7145C15.6335 30.7145 15.6005 30.7205 15.5668 30.7251C13.3995 30.7106 11.3459 30.2121 9.51056 29.3274ZM19.187 26.476C21.2438 26.4509 23.1949 26.1501 24.9212 25.5696C25.3562 25.4228 25.7701 25.2615 26.1635 25.085C25.6835 26.2592 24.9767 27.237 24.0584 27.9656C22.2428 29.3025 20.1007 30.2188 17.7754 30.5693C18.3579 29.5636 18.8273 28.1441 19.187 26.476Z" fill="white"/>
<mask id="mask0_1219_4724" style="mask-type:luminance" maskUnits="userSpaceOnUse" x="34" y="11" width="126" height="10">
<path fill-rule="evenodd" clip-rule="evenodd" d="M34.38 11.4492H159.631V20.757H34.38V11.4492Z" fill="white"/>
</mask>
<g mask="url(#mask0_1219_4724)">
<path fill-rule="evenodd" clip-rule="evenodd" d="M45.055 11.5258H47.26L44.6312 20.6802H42.4303L40.8322 14.9393L39.2098 20.6802H37.0088L34.38 11.5258H36.6498L38.1876 18.2061L40.0329 11.5258H41.6719L43.4557 18.2061L45.055 11.5258ZM51.6367 19.0501C52.4122 19.0501 53.7121 18.6692 53.7121 16.1152C53.7121 13.5625 52.4122 13.1816 51.6367 13.1816C50.2906 13.1816 49.5488 14.2236 49.5488 16.1152C49.5488 18.0081 50.2906 19.0501 51.6367 19.0501ZM51.6368 11.4492C53.6143 11.4492 55.7274 12.6743 55.7274 16.115C55.7274 19.5372 53.6143 20.757 51.6368 20.757C49.654 20.757 47.5343 19.5372 47.5343 16.115C47.5343 12.6743 49.654 11.4492 51.6368 11.4492ZM58.7898 15.8074H59.8787C60.961 15.8074 61.6334 15.3016 61.6334 14.4878C61.6334 13.6335 61.045 13.143 60.0195 13.143H58.7898V15.8074ZM62.8248 17.9046C63.1468 18.5605 63.4258 19.1264 64.0698 19.1264H64.5319V20.6326L64.4652 20.6511C64.4506 20.655 64.1134 20.7436 63.519 20.7436C61.9792 20.7436 61.5058 19.6838 61.0893 18.7496C60.7475 17.9833 60.4526 17.3215 59.648 17.3215H58.7898V20.6802H56.8394V11.5258H60.0837C62.4539 11.5258 63.5587 12.4501 63.5587 14.4355C63.5587 15.6646 62.8215 16.4223 62.0857 16.7469C62.4103 17.0616 62.6212 17.4894 62.8248 17.9046ZM67.4027 11.5258H65.4523V20.6802H71.3637V19.0623H67.4027V11.5258ZM74.2214 19.0623H75.3612C76.7649 19.0623 77.6032 18.0038 77.6032 16.2306C77.6032 14.1823 76.7153 13.143 74.9632 13.143H74.2214V19.0623ZM74.9897 11.5258C77.8393 11.5258 79.5404 13.2944 79.5404 16.2564C79.5404 19.0676 78.0224 20.6802 75.3738 20.6802H72.271V11.5258H74.9897ZM84.9745 19.0623H86.4992C87.4949 19.0623 87.959 18.6881 87.959 17.8848C87.959 16.9003 87.1445 16.6934 86.4602 16.6934H84.9745V19.0623ZM86.3068 15.2686C87.1193 15.2686 87.4975 14.9274 87.4975 14.1929C87.4975 13.496 87.0149 13.143 86.0628 13.143H84.9745V15.2686H86.3068ZM88.4787 15.855C89.1822 16.0574 90.1018 16.7013 90.1018 18.0765C90.1018 19.7307 88.9283 20.6802 86.884 20.6802H83.0241V11.5258H86.5117C88.4939 11.5258 89.5002 12.3542 89.5002 13.9879C89.5002 15.2521 88.9243 15.699 88.4787 15.855ZM94.6122 14.0219L93.6238 16.9098H95.6238L94.6122 14.0219ZM95.6071 11.5853L98.9459 20.6802H96.9181L96.1367 18.4369H93.0867L92.331 20.6802H90.2894L93.6507 11.5258H95.5853L95.6071 11.5853ZM104.646 17.1807L101.444 11.5258H99.4675V20.6802H101.419V15.2203L104.607 20.6802H106.596V11.5258H104.646V17.1807ZM115.673 11.5258H113.355L110.326 15.6461V11.5258H108.35V20.6802H110.326V16.4686L113.432 20.6802H115.777L112.233 16.064L115.673 11.5258ZM121.513 17.3342H123.525V17.4353C123.525 18.0297 123.315 19.0241 121.911 19.0241C120.587 19.0241 119.798 17.9365 119.798 16.115C119.798 14.2512 120.553 13.1815 121.872 13.1815C123.441 13.1815 123.497 14.7682 123.499 14.8363L123.501 14.9395L125.321 14.6552V14.5772C125.321 13.9167 124.732 11.4492 121.846 11.4492C119.263 11.4492 117.782 13.1497 117.782 16.115C117.782 19.0215 119.312 20.757 121.872 20.757C124.446 20.757 125.36 18.9613 125.36 17.4234V15.8334H121.513V17.3342ZM128.652 15.8074H129.741C130.824 15.8074 131.497 15.3016 131.497 14.4878C131.497 13.6335 130.909 13.143 129.883 13.143H128.652V15.8074ZM132.688 17.9046C133.01 18.5605 133.288 19.1264 133.932 19.1264H134.395V20.6326L134.328 20.6511C134.315 20.655 133.976 20.7436 133.382 20.7436C131.842 20.7436 131.37 19.6838 130.953 18.7496C130.611 17.9833 130.315 17.3215 129.51 17.3215H128.652V20.6802H126.703V11.5258H129.946C132.317 11.5258 133.421 12.4501 133.421 14.4355C133.421 15.6646 132.684 16.4223 131.948 16.7469C132.274 17.0616 132.483 17.4894 132.688 17.9046ZM138.802 19.0501C139.578 19.0501 140.878 18.6692 140.878 16.1152C140.878 13.5625 139.578 13.1816 138.802 13.1816C137.456 13.1816 136.715 14.2236 136.715 16.1152C136.715 18.0081 137.456 19.0501 138.802 19.0501ZM138.802 11.4492C140.78 11.4492 142.892 12.6743 142.892 16.115C142.892 19.5372 140.78 20.757 138.802 20.757C136.82 20.757 134.7 19.5372 134.7 16.115C134.7 12.6743 136.82 11.4492 138.802 11.4492ZM149.261 17.0134C149.261 18.3575 148.745 19.0114 147.685 19.0114C146.613 19.0114 146.071 18.339 146.071 17.0134V11.5258H144.121V16.8838C144.115 18.1942 144.441 19.1893 145.092 19.8418C145.696 20.4488 146.568 20.7569 147.685 20.7569C149.294 20.7569 151.211 20.0845 151.211 16.8845V11.5258H149.261V17.0134ZM154.799 16.1526H155.965C157.095 16.1526 157.668 15.6573 157.668 14.6802C157.668 13.6884 157.04 13.143 155.901 13.143H154.799V16.1526ZM156.041 11.5258C158.356 11.5258 159.632 12.6458 159.632 14.6802C159.632 16.5988 158.375 17.7446 156.272 17.7446H154.799V20.6802H152.849V11.5258H156.041Z" fill="white"/>
</g>
</svg>
